<svg xmlns="http://www.w3.org/2000/svg" width="549" height="622" viewBox="0 0 549 622" fill="none">
<path d="M421.791 615.219C354.325 548.712 306.03 471.96 289.492 376.573C271.753 274.176 298.534 181.606 351.979 96.6448C372.637 63.7508 396.899 33.3733 420.646 0C427.856 8.68785 433.178 14.6195 437.813 20.9107C492.346 91.5519 530.914 170.222 544.075 260.575C556.492 346.256 540.985 427.142 501.158 502.936C479.302 543.864 452.363 581.58 421.047 615.099" fill="#D2D7E6" fill-opacity="0.25"/>
<path d="M0 181.614C0 181.614 173.499 189.223 279.188 285.569C279.188 285.569 250.577 460.164 415.092 618.882C415.092 618.882 28.7257 683.232 0 181.494" fill="#D2D7E6" fill-opacity="0.25"/>
</svg>